<svg xmlns="http://www.w3.org/2000/svg" xmlns:xlink="http://www.w3.org/1999/xlink" version="1.1" x="0px" y="0px" viewBox="0 0 85.001 38.335" enable-background="new 0 0 85.001 30.668" xml:space="preserve"><path d="M0.175,10.756l6.648,18.065c0.539,1.462,2.159,2.21,3.62,1.673c1.462-0.539,2.21-2.159,1.673-3.62h-0.001L7.683,14.826  c14.25,8.491,26.886,11.575,37.581,11.57c12.568,0.003,22.343-4.23,28.924-8.452c6.592-4.226,10.044-8.438,10.179-8.598  c0.983-1.206,0.804-2.982-0.401-3.968c-0.523-0.427-1.155-0.635-1.782-0.635c-0.817,0-1.629,0.354-2.186,1.037v0.001  c0,0,0,0-0.013,0.014c-0.258,0.311-3.509,4.097-9.4,7.757c-5.9,3.661-14.389,7.203-25.32,7.204  c-9.633-0.003-21.244-2.742-34.808-10.843l11.806-4.455c1.456-0.55,2.192-2.178,1.644-3.635C23.478,0.695,22.404,0,21.265,0  c-0.33,0-0.666,0.06-0.995,0.183L1.825,7.146C0.376,7.692-0.36,9.304,0.175,10.756z"/></svg>